HIERARCHY
ROOT pelvis
{
  OFFSET 0 100 0
  CHANNELS 6 Xposition Yposition Zposition Zrotation Xrotation Yrotation
  JOINT pelvis_right_femur
  {
    OFFSET -10.78128 -3.44521 -0.5502486
    CHANNELS 3 Zrotation Xrotation Yrotation
    JOINT right_femur_tibia
    {
      OFFSET -0.8047443 -44.0398 -0.1307829
      CHANNELS 3 Zrotation Xrotation Yrotation
      JOINT right_tibia_foot
      {
        OFFSET 3.006224 -47.83518 -5
        CHANNELS 3 Zrotation Xrotation Yrotation
        End Site
        {
          OFFSET 0 -5 15
        }
      }
    }
  }
  JOINT pelvis_left_femur
  {
    OFFSET 10.78128 -3.44521 -0.5502486
    CHANNELS 3 Zrotation Xrotation Yrotation
    JOINT left_femur_tibia
    {
      OFFSET 0.8047443 -44.0398 -0.1307829
      CHANNELS 3 Zrotation Xrotation Yrotation
      JOINT left_tibia_foot
      {
        OFFSET -4.370144 -48.10324 -4.275266
        CHANNELS 3 Zrotation Xrotation Yrotation
        End Site
        {
          OFFSET 0 -5 15
        }
      }
    }
  }
  JOINT pelvis_spine1
  {
    OFFSET 0 6.468898 -3.129235
    CHANNELS 3 Zrotation Xrotation Yrotation
    JOINT spine1
    {
      OFFSET 0 23.15396 4.99043
      CHANNELS 3 Zrotation Xrotation Yrotation
      JOINT spine2
      {
        OFFSET 0 20.79997 -5.064912
        CHANNELS 3 Zrotation Xrotation Yrotation
        JOINT neck
        {
          OFFSET 0 14.38658 9.616178
          CHANNELS 3 Zrotation Xrotation Yrotation
          End Site
          {
            OFFSET 0 20 0
          }
        }
      }
      JOINT right_manubrium
      {
        OFFSET -5.722621 16.35077 3.967754
        CHANNELS 3 Zrotation Xrotation Yrotation
        JOINT right_clavicle
        {
          OFFSET -13.16364 1.694482 -4.693211
          CHANNELS 3 Zrotation Xrotation Yrotation
          JOINT right_humerus
          {
            OFFSET -28.5034 -0.3100689 -2.792744
            CHANNELS 3 Zrotation Xrotation Yrotation
            JOINT right_radius
            {
              OFFSET -25.15693 0.02248979 -1.271978
              CHANNELS 3 Zrotation Xrotation Yrotation
              End Site
              {
                OFFSET -15 0 0
              }
            }
          }
        }
      }
      JOINT left_manubrium
      {
        OFFSET 5.722621 16.35077 3.967754
        CHANNELS 3 Zrotation Xrotation Yrotation
        JOINT left_clavicle
        {
          OFFSET 13.16364 1.694482 -4.693211
          CHANNELS 3 Zrotation Xrotation Yrotation
          JOINT left_humerus
          {
            OFFSET 29.39168 -1.063119 -2.237045
            CHANNELS 3 Zrotation Xrotation Yrotation
            JOINT left_radius
            {
              OFFSET 24.59957 -0.9528479 0.9047498
              CHANNELS 3 Zrotation Xrotation Yrotation
              End Site
              {
                OFFSET 15 -0 -0
              }
            }
          }
        }
      }
    }
  }
}
MOTION
Frames: 21
Frame Time: 0.0416666666667
-1123.835 111.4904 2131.147 -7.542518 1.632109 -93.6556 6.380544 15.00512 2.139517 -0 12.72414 -0 -10.3979 -14.63544 -2.282043 4.685408 -21.2068 -1.916242 -0 15.8669 -0 2.088002 -1.480506 16.54915 1.789132 -3.131678 8.384944 -1.222341 15.79167 -4.546612 2.358498 18.85604 0.7896481 -1.592351 -18.72924 5.35724 -4.649005 -32.27578 11.1132 90.46102 15.80382 -7.128635 -0 0 31.28639 -23.83714 17.23921 18.34781 0.6312854 -19.14744 -7.115378 -94.80645 14.01852 39.87778 0 0 -12.86318 -0.05763858 11.86448 16.35416
-1129.531 110.6438 2131.72 -7.461607 1.72405 -94.3054 5.789636 16.75129 1.83341 -0 13.57305 -0 -10.08061 -15.75592 -2.084302 4.242125 -20.91246 -2.872856 -0 12.1702 -0 1.119997 -1.535874 16.77042 1.625433 -3.003154 8.495733 -1.312895 15.33891 -4.186381 2.378469 18.91693 0.7890562 -1.606319 -18.77821 5.400029 -4.797648 -32.53837 10.84864 89.65977 15.65987 -5.801942 -0 0 32.43842 -24.06822 16.86208 18.773 0.8312079 -18.32536 -6.701881 -95.60377 14.48059 40.74166 0 0 -11.28217 -0.4359212 11.46318 16.70052
-1135.336 109.7827 2132.281 -7.542872 1.690101 -94.94462 5.144933 18.07926 1.1935 -0 14.21621 -0 -9.990966 -16.23913 -1.743035 3.524645 -20.2616 -3.97731 -0 9.870721 -0 0.1463542 -1.8846 17.07964 1.45649 -2.856143 8.516103 -1.386161 14.90858 -3.881644 2.408797 19.07841 0.8795966 -1.554298 -18.8487 5.497278 -4.917585 -32.49686 10.61221 89.14831 15.48386 -4.986359 -0 0 32.9051 -24.18025 16.31813 18.94739 1.053119 -17.74192 -6.397917 -96.18821 15.05248 41.02969 0 0 -10.17582 -0.7220803 11.09084 17.0069
-1141.249 108.9374 2132.8 -7.723183 1.587131 -95.56692 4.48797 19.12804 0.3774642 -0 14.79573 -0 -10.06628 -16.24705 -1.311091 2.682499 -19.44411 -5.124257 -0 8.469069 -0 -0.7867432 -2.424069 17.45001 1.308423 -2.713634 8.483061 -1.437284 14.55602 -3.653211 2.440708 19.27499 1.002837 -1.47627 -18.91849 5.60899 -4.998324 -32.29502 10.42986 88.86623 15.31707 -4.564733 -0 0 32.93447 -24.2056 15.76741 18.95252 1.250593 -17.36278 -6.197139 -96.5789 15.61106 40.96987 0 0 -9.454457 -0.9218959 10.79043 17.24605
-1147.267 108.1328 2133.259 -7.970589 1.442633 -96.16525 3.817823 20.00033 -0.5021051 -0 15.45856 -0 -10.26016 -15.86612 -0.827105 1.778212 -18.52952 -6.284662 -0 7.662106 -0 -1.6584 -3.080184 17.85444 1.189986 -2.588138 8.42093 -1.467604 14.29353 -3.498852 2.469919 19.46966 1.126133 -1.396066 -18.97878 5.714933 -5.044285 -32.02721 10.30226 88.74981 15.17578 -4.418677 -0 0 32.71171 -24.17538 15.28572 18.85722 1.406694 -17.14214 -6.080322 -96.81209 16.09982 40.72127 0 0 -9.022607 -1.049176 10.57319 17.41445
-1153.388 107.3947 2133.649 -8.281882 1.265352 -96.7304 3.121566 20.74351 -1.38549 -0 16.33294 -0 -10.55646 -15.09764 -0.3106899 0.8285817 -17.51062 -7.458211 -0 7.303985 -0 -2.448419 -3.813226 18.2774 1.099274 -2.482156 8.342629 -1.483129 14.11019 -3.403746 2.496402 19.64927 1.23857 -1.322222 -19.02572 5.810299 -5.062036 -31.73591 10.21876 88.7496 15.05775 -4.462365 -0 0 32.34398 -24.11006 14.88894 18.70332 1.523126 -17.03865 -6.029303 -96.92589 16.51345 40.36864 0 0 -8.807014 -1.124657 10.42647 17.53263
-1159.612 106.7535 2133.964 -8.666014 1.05666 -97.24992 2.387883 21.35732 -2.23853 -0 17.54082 -0 -10.95851 -13.88468 0.2305446 -0.1631933 -16.34674 -8.646189 -0 7.341308 -0 -3.131103 -4.60442 18.71044 1.030664 -2.393029 8.253639 -1.490951 13.98871 -3.351271 2.522224 19.81344 1.34057 -1.254849 -19.05606 5.897792 -5.055507 -31.43077 10.16716 88.83353 14.95311 -4.645319 -0 0 31.88155 -24.01992 14.56635 18.51018 1.608583 -17.0223 -6.031547 -96.94977 16.87043 39.94523 0 0 -8.762495 -1.169511 10.32915 17.63025
-1165.931 106.2477 2134.204 -9.131862 0.8174708 -97.70726 1.613159 21.79878 -3.030198 -0 19.21288 -0 -11.47784 -12.13515 0.7942929 -1.190335 -14.98688 -9.838719 -0 7.766892 -0 -3.673725 -5.443701 19.14655 0.9784606 -2.316696 8.1549 -1.497362 13.91336 -3.328021 2.550147 19.96697 1.436881 -1.190732 -19.06582 5.982767 -5.02553 -31.10454 10.13735 88.98436 14.85063 -4.944941 -0 0 31.3393 -23.90794 14.30032 18.28264 1.672438 -17.07519 -6.080526 -96.90138 17.19589 39.45346 0 0 -8.868659 -1.201607 10.26118 17.73666
-1172.331 105.9237 2134.368 -9.679454 0.5531221 -98.08116 0.8075061 21.97766 -3.719841 -0 21.49376 -0 -12.12534 -9.743781 1.37811 -2.232472 -13.3807 -11.00736 -0 8.586763 -0 -4.036818 -6.321678 19.57561 0.9382739 -2.249788 8.04445 -1.507402 13.87247 -3.325064 2.583059 20.11606 1.533245 -1.125909 -19.04981 6.071151 -4.970529 -30.74187 10.12184 89.19638 14.74028 -5.358987 -0 0 30.71056 -23.7724 14.07483 18.01704 1.722388 -17.19034 -6.174915 -96.78668 17.51386 38.87726 0 0 -9.125823 -1.234432 10.20727 17.87757
-1178.778 105.8347 2134.46 -10.2911 0.2786376 -98.34611 0.003915994 21.74597 -4.252915 -0 24.52532 -0 -12.90152 -6.629996 1.972804 -3.247917 -11.48715 -12.10022 -0 9.786474 -0 -4.179433 -7.225348 19.98045 0.9074346 -2.190907 7.918388 -1.524961 13.85852 -3.337841 2.623774 20.26643 1.635004 -1.056814 -19.00134 6.168661 -4.887379 -30.32379 10.11513 89.47263 14.61437 -5.900014 -0 0 29.97531 -23.60871 13.87875 17.70506 1.763911 -17.37049 -6.317528 -96.60054 17.84382 38.18843 0 0 -9.552564 -1.276805 10.15821 18.07413
-1185.218 106.0318 2134.487 -10.92183 0.02479568 -98.47528 -0.7304864 20.89167 -4.567767 -0 28.38722 -0 -13.78226 -2.811101 2.551489 -4.168771 -9.286487 -13.04291 -0 11.28767 -0 -4.074787 -8.139211 20.33355 0.885141 -2.141817 7.771655 -1.55296 13.86729 -3.365709 2.674845 20.42201 1.746431 -0.9808627 -18.91209 6.280361 -4.772451 -29.83078 10.11283 89.82228 14.46899 -6.590505 -0 0 29.10607 -23.41123 13.70723 17.3372 1.800401 -17.62726 -6.513877 -96.32705 18.19783 37.35073 0 0 -10.1843 -1.332244 10.11168 18.34167
-1191.564 106.5448 2134.459 -11.49424 -0.1586015 -98.44806 -1.290393 19.15914 -4.618041 -0 32.97076 -0 -14.69767 1.483275 3.052412 -4.905275 -6.795886 -13.75346 -0 12.90035 -0 -3.738827 -9.055303 20.59577 0.8724706 -2.108761 7.599179 -1.593515 13.89629 -3.411111 2.738163 20.58352 1.870276 -0.8967639 -18.77263 6.410023 -4.623193 -29.24635 10.11053 90.257 14.30664 -7.45605 -0 0 28.07492 -23.1758 13.56217 16.90733 1.833753 -17.97991 -6.769653 -95.94045 18.57651 36.32491 0 0 -11.07048 -1.3976 10.07324 18.68695
-1197.705 107.3521 2134.391 -11.90827 -0.2124581 -98.26285 -1.55655 16.3278 -4.408738 -0 37.79925 -0 -15.51105 5.704964 3.363403 -5.370041 -4.082855 -14.17718 -0 14.3057 -0 -3.259752 -9.992082 20.71971 0.872005 -2.103291 7.397785 -1.648161 13.94222 -3.477726 2.814268 20.7471 2.007583 -0.8044145 -18.57399 6.559128 -4.440371 -28.56215 10.10266 90.78491 14.13992 -8.514202 -0 0 26.86346 -22.90365 13.45106 16.41908 1.865653 -18.45188 -7.08639 -95.40913 18.96446 35.07746 0 0 -12.26651 -1.461607 10.05632 19.10425
-1203.536 108.3512 2134.297 -12.07224 -0.1024682 -97.94993 -1.464189 12.35413 -4.02771 -0 41.92264 -0 -16.02747 9.032288 3.340996 -5.525774 -1.264796 -14.32763 -0 15.1294 -0 -2.791701 -11.00727 20.65938 0.8865912 -2.140961 7.168627 -1.718172 13.99731 -3.567141 2.901526 20.90402 2.158213 -0.7039652 -18.31092 6.725816 -4.230299 -27.78297 10.08165 91.40247 13.99419 -9.759742 -0 0 25.47463 -22.60555 13.38213 15.89211 1.899792 -19.06329 -7.455701 -94.70533 19.32866 33.59298 0 0 -13.81665 -1.505267 10.07899 19.57247
-1209 109.3601 2134.19 -11.93918 0.1352745 -97.57227 -1.078135 7.495273 -3.642382 -0 44.13578 -0 -16.07708 10.7084 2.905821 -5.430813 1.512663 -14.29011 -0 15.12277 -0 -2.477149 -12.17446 20.38685 0.9171506 -2.236222 6.918565 -1.80449 14.04636 -3.675363 2.995748 21.04337 2.322122 -0.5943146 -17.98602 6.904634 -4.005511 -26.92786 10.03835 92.08844 13.90488 -11.15394 -0 0 23.93918 -22.30287 13.35591 15.36253 1.94406 -19.81999 -7.855092 -93.81954 19.6258 31.88502 0 0 -15.72978 -1.505974 10.15643 20.05663
-1214.118 110.1723 2134.07 -11.51932 0.3911702 -97.20484 -0.5796803 2.265345 -3.439916 -0 43.60396 -0 -15.6414 10.52873 2.158724 -5.228957 4.113283 -14.16188 -0 14.33455 -0 -2.335964 -13.5173 19.91757 0.9605565 -2.394755 6.65811 -1.906087 14.06773 -3.792772 3.090702 21.1577 2.500353 -0.4725973 -17.61362 7.08785 -3.783176 -26.02482 9.96452 92.80709 13.90665 -12.62925 -0 0 22.3078 -22.02204 13.35719 14.87226 2.010448 -20.70538 -8.249923 -92.77132 19.81949 29.99588 0 0 -17.9605 -1.443621 10.29334 20.51279
-1218.977 110.6347 2133.929 -10.86512 0.5523517 -96.90398 -0.1426453 -2.802554 -3.526935 -0 40.43218 -0 -14.87253 8.999438 1.346144 -5.068816 6.446311 -13.98668 -0 13.09671 -0 -2.236829 -14.96222 19.33116 1.009153 -2.608142 6.395914 -2.016153 14.03952 -3.909942 3.179021 21.24883 2.694639 -0.3360122 -17.22301 7.267814 -3.583185 -25.10206 9.856678 93.52244 14.0187 -14.11114 -0 0 20.62845 -21.78396 13.35314 14.4511 2.111536 -21.68194 -8.602091 -91.60667 19.89752 27.98212 0 0 -20.41049 -1.302477 10.48401 20.88919
-1223.68 110.6904 2133.755 -10.04647 0.5762802 -96.69188 0.1726781 -7.391406 -3.868955 -0 35.54291 -0 -13.96876 6.950812 0.6776586 -5.026611 8.481729 -13.75814 -0 11.82261 -0 -1.994686 -16.3756 18.75054 1.052446 -2.854763 6.133861 -2.118087 13.94754 -4.02587 3.252514 21.32941 2.90602 -0.1847366 -16.8605 7.438681 -3.427867 -24.18312 9.719591 94.21425 14.23487 -15.54268 -0 0 18.92424 -21.59566 13.29891 14.10331 2.255795 -22.70211 -8.879836 -90.38341 19.87648 25.89613 0 0 -22.95097 -1.066355 10.72016 21.12083
-1228.315 110.3641 2133.537 -9.124894 0.489166 -96.563 0.4076178 -11.44441 -4.33622 -0 29.99924 -0 -13.0656 5.037989 0.2222832 -5.102778 10.24008 -13.46336 -0 10.81804 -0 -1.482403 -17.6442 18.28267 1.080237 -3.106108 5.867202 -2.185823 13.79076 -4.151529 3.302184 21.41844 3.133846 -0.02311612 -16.58581 7.596565 -3.340965 -23.28817 9.567556 94.88326 14.52419 -16.89554 -0 0 17.18969 -21.44976 13.14911 13.80763 2.444841 -23.72014 -9.063645 -89.15616 19.79097 23.77825 0 0 -25.45302 -0.7141313 10.99785 21.12829
-1232.951 109.7248 2133.267 -8.138412 0.3397266 -96.49828 0.6382611 -15.05378 -4.792093 -0 24.51982 -0 -12.22632 3.584132 -0.04901452 -5.264726 11.76727 -13.10099 -0 10.2515 -0 -0.6530744 -18.70638 17.98323 1.085816 -3.334949 5.589694 -2.191414 13.58154 -4.304757 3.319549 21.53291 3.375658 0.142015 -16.45778 7.739004 -3.341949 -22.43711 9.421807 95.54226 14.84156 -18.16426 -0 0 15.40964 -21.33136 12.8728 13.52938 2.673741 -24.69854 -9.148074 -87.9689 19.67624 21.66227 0 0 -27.81141 -0.2240863 11.31662 20.83394
-1237.645 108.861 2132.936 -7.106993 0.1723143 -96.47454 0.9405614 -18.33269 -5.12804 -0 19.47887 -0 -11.48188 2.698228 -0.1927223 -5.476209 13.10722 -12.67727 -0 10.23429 -0 0.4904296 -19.52359 17.86451 1.067557 -3.521416 5.299599 -2.116438 13.34114 -4.499708 3.299474 21.68073 3.627191 0.3041159 -16.51391 7.864666 -3.437484 -21.65035 9.304324 96.19963 15.1431 -19.35004 -0 0 13.58776 -21.22723 12.46589 13.23668 2.933144 -25.60741 -9.140662 -86.85587 19.55545 19.58699 0 0 -29.95158 0.4140629 11.67333 20.19001
